<svg id="Lemon_Drop" data-name="Lemon Drop" xmlns="http://www.w3.org/2000/svg" viewBox="0 0 144 144"><defs><style>.cls-1{fill:#ff0;stroke:#fcee21;stroke-miterlimit:10;}</style></defs><title>Candy Icons</title><path class="cls-1" d="M11.13,71.46A32.78,32.78,0,0,0,14.68,86.2C7.53,82,3.38,76.91,3.38,71.46S7.53,61,14.66,56.73A32.85,32.85,0,0,0,11.13,71.46Z"/><path class="cls-1" d="M140,71.46c0,5.45-4.15,10.5-11.28,14.73a32.5,32.5,0,0,0,0-29.46C135.85,61,140,66,140,71.46Z"/><path class="cls-1" d="M132.25,71.46a33,33,0,0,1-3.53,14.73c-8.38,16.87-30.76,28.93-57,28.93s-48.63-12.06-57-28.92a32.44,32.44,0,0,1,0-29.47C23,39.87,45.41,27.8,71.69,27.8s48.63,12.07,57,28.93A33,33,0,0,1,132.25,71.46Z"/></svg>