<svg xmlns="http://www.w3.org/2000/svg" viewBox="0 0 144 144"><defs><style>.cls-1{fill:red;}.cls-2{fill:none;stroke:red;stroke-miterlimit:10;}</style></defs><title>Candy Icons</title><g id="Peppermint"><path class="cls-1" d="M129.44,112.37a5.62,5.62,0,0,1-.73-.53l-.44-.39a10.26,10.26,0,0,1-.74-.73c-.47-.47-.88-.93-1.27-1.4a29.6,29.6,0,0,1-2-2.8c-.63-.94-1.18-1.87-1.71-2.81s-1-1.89-1.44-2.83l-.51-1.08,0-.18a77.06,77.06,0,0,0-4.9-18.1A37.55,37.55,0,0,0,105,66.8a22.56,22.56,0,0,0-7.92-4.22,15.72,15.72,0,0,0-8.76-.11,24.14,24.14,0,0,0-8.07,4.35c-2.49,2-4.82,4.19-7.2,6.43a77.52,77.52,0,0,1-7.47,6.56c-.68.5-1.38,1-2.11,1.47s-1.52.82-2.29,1.23-1.57.7-2.38,1-1.63.59-2.49.76a22.14,22.14,0,0,1-10.46.22,25.86,25.86,0,0,1-5-1.64,31,31,0,0,1-4.57-2.58c-5.83-3.91-10.28-9.34-14-15.11a72.92,72.92,0,0,1-8.51-19.11l.65,1.76c-.52-.65-1.06-1.29-1.6-1.89s-1.11-1.18-1.69-1.69a18.23,18.23,0,0,0-1.74-1.35c-.28-.18-.56-.36-.81-.49l-.36-.15-.12,0s-.14,0,.14.14l6.5-11.25a5.28,5.28,0,0,1,.72.53l.45.39c.26.24.52.49.74.73.47.47.87.93,1.27,1.4a29.71,29.71,0,0,1,2,2.81c.63.93,1.18,1.86,1.71,2.8s1,1.89,1.44,2.83l.63,1.33,0,.44A49.84,49.84,0,0,0,28.05,62,40,40,0,0,0,38.8,76.78,22.37,22.37,0,0,0,46.69,81a18.47,18.47,0,0,0,8.9.28c.75-.13,1.46-.41,2.2-.6s1.43-.55,2.15-.82,1.38-.67,2.05-1,1.29-.81,1.93-1.28a74.43,74.43,0,0,0,7.27-6.25c2.35-2.25,4.7-4.57,7.32-6.67a27.34,27.34,0,0,1,8.89-5.13,19.43,19.43,0,0,1,10.53-.42,27.27,27.27,0,0,1,9.59,4.18c5.85,3.84,10.37,9.35,14,15.19a123.18,123.18,0,0,1,8.8,18.46l-.54-1.26c.53.66,1.06,1.29,1.61,1.89A22.35,22.35,0,0,0,133,99.25a18.23,18.23,0,0,0,1.74,1.35c.29.19.57.36.82.49a2.53,2.53,0,0,0,.36.15s.09,0,.12,0,.14,0-.14-.14Z"/><path class="cls-1" d="M101.49,135.67a5.75,5.75,0,0,1-.36-.82l-.2-.57c-.1-.34-.2-.68-.27-1-.17-.64-.29-1.25-.4-1.85a33,33,0,0,1-.37-3.45c-.07-1.12-.08-2.2-.07-3.28s.08-2.13.17-3.18l.09-1.18.07-.17A77.57,77.57,0,0,0,105,102.05,37.64,37.64,0,0,0,103.1,84a22.55,22.55,0,0,0-4.76-7.62,15.82,15.82,0,0,0-7.53-4.48,24.22,24.22,0,0,0-9.16-.26c-3.13.45-6.27,1.22-9.45,2a77.16,77.16,0,0,1-9.75,2c-.84.09-1.69.17-2.56.21s-1.73,0-2.6-.07-1.71-.18-2.56-.32S53,75,52.19,74.76a22,22,0,0,1-9.17-5,25.3,25.3,0,0,1-3.53-3.93,31.73,31.73,0,0,1-2.67-4.52c-3.09-6.3-4.23-13.22-4.56-20.09a72.56,72.56,0,0,1,2.18-20.8l-.32,1.85c-.12-.83-.27-1.64-.44-2.44s-.37-1.57-.62-2.3a16,16,0,0,0-.83-2,7,7,0,0,0-.46-.83,3.13,3.13,0,0,0-.23-.31s-.07-.07-.1-.08-.1-.1,0,.19l11.26-6.5a6.48,6.48,0,0,1,.36.83l.19.56c.11.34.2.68.28,1,.17.64.29,1.25.39,1.85a28.34,28.34,0,0,1,.37,3.45c.08,1.12.09,2.21.08,3.28s-.09,2.13-.17,3.18l-.12,1.46-.2.39a50,50,0,0,0-5.07,17.45,40,40,0,0,0,1.93,18.15,22.41,22.41,0,0,0,4.72,7.61,18.4,18.4,0,0,0,7.56,4.69c.71.27,1.48.38,2.21.58s1.52.24,2.27.36,1.53.12,2.29.15,1.53-.06,2.31-.14A75.81,75.81,0,0,0,71.58,71c3.15-.78,6.34-1.61,9.66-2.12a27.29,27.29,0,0,1,10.27,0,19.5,19.5,0,0,1,9.33,4.89,27.39,27.39,0,0,1,6.21,8.42c3.15,6.25,4.31,13.29,4.51,20.14A123.25,123.25,0,0,1,110,122.71l.16-1.35c.13.83.27,1.65.45,2.44s.37,1.57.61,2.3a17.66,17.66,0,0,0,.83,2,8.78,8.78,0,0,0,.47.83,3.13,3.13,0,0,0,.23.31l.09.08s.1.11,0-.19Z"/><path class="cls-1" d="M65.64,141.86a6.06,6.06,0,0,1,.09-.89l.12-.58c.08-.35.16-.7.26-1,.18-.64.37-1.22.58-1.8a29.72,29.72,0,0,1,1.41-3.17c.49-1,1-1.95,1.57-2.88s1.14-1.8,1.74-2.67l.67-1,.15-.11a77.66,77.66,0,0,0,13.22-13.29A37.51,37.51,0,0,0,92.88,97.9a22.6,22.6,0,0,0-.31-9,15.82,15.82,0,0,0-4.28-7.64,24.07,24.07,0,0,0-7.81-4.81c-2.93-1.18-6-2.08-9.16-3a76.83,76.83,0,0,1-9.42-3.19c-.77-.34-1.55-.7-2.33-1.09s-1.47-.91-2.21-1.37-1.39-1-2.06-1.56S54,65.13,53.39,64.47A22.18,22.18,0,0,1,48,55.52a26.14,26.14,0,0,1-1.09-5.17,31.75,31.75,0,0,1-.05-5.25c.47-7,3-13.57,6.09-19.68A72.69,72.69,0,0,1,65.22,8.5L64,10q.46-1.18.84-2.34c.23-.78.47-1.55.62-2.3a18.19,18.19,0,0,0,.3-2.19,7.62,7.62,0,0,0,0-1,3.22,3.22,0,0,0,0-.38.34.34,0,0,0,0-.12s0-.14,0,.19h13a7.47,7.47,0,0,1-.1.9l-.11.58c-.09.35-.17.69-.27,1-.17.64-.37,1.22-.58,1.79a29,29,0,0,1-1.41,3.18c-.49,1-1,1.95-1.57,2.88s-1.14,1.8-1.73,2.66L72,16.07l-.37.24A50,50,0,0,0,58.55,28.89a39.94,39.94,0,0,0-7.41,16.68,22.63,22.63,0,0,0,.28,9,18.33,18.33,0,0,0,4.21,7.84c.48.59,1.09,1.07,1.62,1.61s1.19,1,1.79,1.45,1.26.86,1.91,1.27,1.35.71,2.07,1a74.89,74.89,0,0,0,9,3.17c3.12.91,6.3,1.78,9.43,3A27.5,27.5,0,0,1,90.39,79,19.48,19.48,0,0,1,96,87.94a27,27,0,0,1,1.17,10.39c-.4,7-2.91,13.66-6.17,19.7a123.47,123.47,0,0,1-11.58,16.85l.82-1.1q-.47,1.18-.84,2.34c-.23.78-.46,1.55-.62,2.3a20.62,20.62,0,0,0-.3,2.18c0,.34,0,.67,0,1a3.53,3.53,0,0,0,.05.38s0,.1,0,.11,0,.14.06-.19Z"/><path class="cls-1" d="M31.49,129.3a5.28,5.28,0,0,1,.53-.72l.39-.45c.25-.26.49-.52.73-.74.47-.47.94-.87,1.4-1.27a29.71,29.71,0,0,1,2.81-2c.93-.63,1.86-1.18,2.8-1.71s1.89-1,2.84-1.44l1.07-.51.18,0a77.53,77.53,0,0,0,18.1-4.89,37.58,37.58,0,0,0,14.72-10.65,22.44,22.44,0,0,0,4.22-7.93,15.72,15.72,0,0,0,.12-8.76A24,24,0,0,0,77,80.09c-2-2.49-4.19-4.81-6.42-7.19a77.74,77.74,0,0,1-6.57-7.48c-.49-.67-1-1.37-1.47-2.11s-.82-1.52-1.23-2.28-.7-1.58-1-2.38-.59-1.64-.77-2.49a22,22,0,0,1-.21-10.46,24.66,24.66,0,0,1,1.64-5,31.55,31.55,0,0,1,2.58-4.57c3.9-5.82,9.33-10.27,15.11-14A72.31,72.31,0,0,1,97.81,13.6L96,14.25c.66-.53,1.3-1.06,1.9-1.61s1.17-1.1,1.68-1.68A18.4,18.4,0,0,0,101,9.22c.18-.29.36-.57.48-.82a2.53,2.53,0,0,0,.15-.36.27.27,0,0,0,0-.12s0-.14-.14.14l11.26,6.5a8.68,8.68,0,0,1-.53.73l-.39.44c-.25.27-.5.52-.73.74-.48.47-.94.88-1.41,1.27a29.6,29.6,0,0,1-2.8,2c-.93.63-1.87,1.18-2.81,1.71s-1.88,1-2.83,1.44l-1.33.63-.43,0a50.17,50.17,0,0,0-17.65,4.34A40,40,0,0,0,67.08,38.67a22.37,22.37,0,0,0-4.23,7.89,18.43,18.43,0,0,0-.27,8.89c.12.75.4,1.47.59,2.2s.55,1.44.83,2.15.66,1.38,1,2.05.81,1.3,1.27,1.94a75.75,75.75,0,0,0,6.26,7.27c2.25,2.34,4.57,4.69,6.67,7.31a27.55,27.55,0,0,1,5.12,8.9,19.4,19.4,0,0,1,.43,10.52,27.21,27.21,0,0,1-4.19,9.59c-3.84,5.85-9.35,10.38-15.19,14a123,123,0,0,1-18.45,8.79l1.25-.53c-.65.52-1.29,1.06-1.89,1.6s-1.18,1.11-1.68,1.69a16.89,16.89,0,0,0-1.36,1.74,8.13,8.13,0,0,0-.48.81,2,2,0,0,0-.15.36,1,1,0,0,0,0,.12s0,.14.15-.14Z"/><path class="cls-1" d="M8.2,101.35A6,6,0,0,1,9,101l.56-.19c.35-.11.68-.2,1-.28.65-.17,1.25-.29,1.85-.39a28.34,28.34,0,0,1,3.45-.37c1.12-.08,2.21-.09,3.29-.08s2.13.08,3.17.17l1.19.1.17.06a77.44,77.44,0,0,0,18.12,4.81A37.49,37.49,0,0,0,59.89,103a22.68,22.68,0,0,0,7.62-4.75A15.82,15.82,0,0,0,72,90.67a24,24,0,0,0,.26-9.16c-.44-3.13-1.22-6.27-2-9.44a78.74,78.74,0,0,1-1.94-9.76c-.09-.83-.17-1.69-.22-2.56s0-1.73.07-2.6.19-1.71.33-2.56a25.17,25.17,0,0,1,.58-2.54,22.16,22.16,0,0,1,5-9.16,25.37,25.37,0,0,1,3.94-3.53,30.21,30.21,0,0,1,4.51-2.67c6.3-3.1,13.23-4.23,20.09-4.57a72.54,72.54,0,0,1,20.8,2.19L121.63,34c.83-.13,1.65-.27,2.44-.45s1.57-.37,2.3-.61a18.61,18.61,0,0,0,2-.83c.3-.16.59-.31.83-.47a2.89,2.89,0,0,0,.3-.23s.08-.07.08-.09.11-.1-.19,0l6.5,11.26a4.89,4.89,0,0,1-.82.36l-.56.2c-.35.1-.69.2-1,.27-.64.17-1.24.29-1.85.4a33,33,0,0,1-3.45.37c-1.12.07-2.2.08-3.28.07s-2.13-.08-3.17-.17L120.33,44l-.39-.2a49.76,49.76,0,0,0-17.45-5.07,39.79,39.79,0,0,0-18.15,1.93,22.23,22.23,0,0,0-7.61,4.71,18.31,18.31,0,0,0-4.68,7.57c-.27.71-.39,1.47-.59,2.2s-.24,1.52-.36,2.28S71,58.94,71,59.7,71,61.23,71.1,62a73.87,73.87,0,0,0,1.78,9.42c.77,3.15,1.61,6.35,2.11,9.67a27.44,27.44,0,0,1,0,10.26,19.34,19.34,0,0,1-4.9,9.33,27.22,27.22,0,0,1-8.41,6.22c-6.26,3.14-13.29,4.3-20.15,4.5a123.25,123.25,0,0,1-20.38-1.61l1.36.17c-.83.12-1.65.27-2.45.44s-1.57.37-2.3.62a16,16,0,0,0-2,.83,7.93,7.93,0,0,0-.83.46l-.31.23s-.07.07-.08.1-.1.1.2,0Z"/><path class="cls-1" d="M2,65.5a5.45,5.45,0,0,1,.89.1l.59.11c.35.08.69.17,1,.26.65.18,1.23.38,1.8.59A31.86,31.86,0,0,1,9.45,68c1,.5,2,1,2.88,1.58s1.81,1.13,2.67,1.73L16,72l.12.14A76.89,76.89,0,0,0,29.38,85.31,37.55,37.55,0,0,0,46,92.74a22.55,22.55,0,0,0,9-.31,15.77,15.77,0,0,0,7.65-4.28,24,24,0,0,0,4.8-7.81c1.19-2.93,2.08-6,3-9.16a79.16,79.16,0,0,1,3.19-9.42c.34-.77.7-1.55,1.1-2.33s.9-1.47,1.36-2.21,1-1.39,1.56-2.06,1.12-1.32,1.77-1.9a22.2,22.2,0,0,1,9-5.42,24.88,24.88,0,0,1,5.18-1.09,29.6,29.6,0,0,1,5.24,0c7,.47,13.57,2.94,19.68,6.09a72.15,72.15,0,0,1,16.92,12.29l-1.44-1.2c.78.3,1.56.59,2.34.83a22.45,22.45,0,0,0,2.3.62,16.24,16.24,0,0,0,2.18.3c.34,0,.67,0,.95,0l.38-.05.12,0s.14,0-.19-.06v13a5.45,5.45,0,0,1-.89-.1l-.59-.11c-.35-.08-.69-.17-1-.26-.65-.18-1.23-.38-1.8-.59a31.86,31.86,0,0,1-3.17-1.4c-1-.5-2-1-2.88-1.58s-1.81-1.13-2.67-1.73l-1.21-.83-.24-.37A49.69,49.69,0,0,0,115,58.41,40.09,40.09,0,0,0,98.29,51a22.27,22.27,0,0,0-9,.28A18.45,18.45,0,0,0,81.5,55.5c-.58.48-1.06,1.08-1.61,1.61s-1,1.2-1.45,1.79-.86,1.26-1.26,1.91-.72,1.35-1,2.07A75,75,0,0,0,73,71.94c-.9,3.12-1.78,6.3-3,9.43a27.28,27.28,0,0,1-5.14,8.88,19.47,19.47,0,0,1-8.9,5.64,27.44,27.44,0,0,1-10.4,1.17c-7-.4-13.66-2.92-19.7-6.17A122.54,122.54,0,0,1,9,79.3l1.09.82c-.78-.3-1.56-.59-2.34-.83a22.45,22.45,0,0,0-2.3-.62,16.24,16.24,0,0,0-2.18-.3c-.34,0-.67,0-.95,0l-.38.05-.12,0s-.14,0,.19.06Z"/><circle class="cls-2" cx="72" cy="72" r="70"/></g></svg>