<svg id="Layer_1" data-name="Layer 1" xmlns="http://www.w3.org/2000/svg" xmlns:xlink="http://www.w3.org/1999/xlink" viewBox="0 0 2255.47 1437.71"><defs><style>.cls-1{fill:url(#linear-gradient);}.cls-2,.cls-3,.cls-4,.cls-5,.cls-6,.cls-7,.cls-8{opacity:0.21;}.cls-2{fill:url(#radial-gradient);}.cls-3{fill:url(#radial-gradient-2);}.cls-4{fill:url(#radial-gradient-3);}.cls-5{fill:url(#radial-gradient-4);}.cls-6{fill:url(#radial-gradient-5);}.cls-7{fill:url(#radial-gradient-6);}.cls-8{fill:url(#radial-gradient-7);}</style><linearGradient id="linear-gradient" x1="105.82" y1="74.79" x2="1126.19" y2="533.13" gradientUnits="userSpaceOnUse"><stop offset="0.2" stop-color="#a29de6"/><stop offset="0.97" stop-color="#409dc6"/></linearGradient><radialGradient id="radial-gradient" cx="1875.14" cy="259.5" r="87.25" gradientUnits="userSpaceOnUse"><stop offset="0.2" stop-color="#a29de6"/><stop offset="0.97" stop-color="#c6cff8"/></radialGradient><radialGradient id="radial-gradient-2" cx="31" cy="0.5" r="87.25" gradientTransform="translate(990.59 163.56) scale(1.78 1.88)" xlink:href="#radial-gradient"/><radialGradient id="radial-gradient-3" cx="427.76" cy="564.5" r="87.25" gradientTransform="translate(1183.34 362.7) scale(0.58 0.58)" xlink:href="#radial-gradient"/><radialGradient id="radial-gradient-4" cx="785.55" cy="669.82" r="87.25" gradientTransform="translate(424.4 -867.62) scale(2.1 2.09)" xlink:href="#radial-gradient"/><radialGradient id="radial-gradient-5" cx="1224.14" cy="516.5" r="87.25" xlink:href="#radial-gradient"/><radialGradient id="radial-gradient-6" cx="554" cy="616.11" r="87.25" gradientTransform="translate(528.33 -676.77) scale(1.88 1.87)" xlink:href="#radial-gradient"/><radialGradient id="radial-gradient-7" cx="489" cy="-278.25" r="87.25" gradientTransform="translate(1094.43 362.88) scale(0.69 0.69)" xlink:href="#radial-gradient"/></defs><title>head</title><image width="640" height="640" transform="translate(0 797.71)" xlink:href="../../../../Downloads/8c71736d3e493f68ffb22c5a66fae979.jpg"/><path class="cls-1" d="M800.55,639.85a193.53,193.53,0,0,1,325,81.14V-.5H.5V520.07a215.51,215.51,0,0,1,62-9.07c104.3,0,191.29,74.1,211.21,172.53A128.53,128.53,0,0,1,503,711.67a158,158,0,0,1,297.52-71.82Z" transform="translate(947.14 87)"/><ellipse class="cls-2" cx="1875.14" cy="259.5" rx="87" ry="87.5"/><ellipse class="cls-3" cx="1045.64" cy="164.5" rx="154.5" ry="164.5"/><circle class="cls-4" cx="1431.64" cy="688.5" r="50.5"/><ellipse class="cls-5" cx="2072.9" cy="529.71" rx="182.57" ry="182.54"/><ellipse class="cls-6" cx="1224.14" cy="516.5" rx="87" ry="87.5"/><ellipse class="cls-7" cx="1569.92" cy="474.73" rx="163.57" ry="163.54"/><ellipse class="cls-8" cx="1432.07" cy="171.96" rx="60.07" ry="60.04"/></svg>