<svg id="Layer_1" data-name="Layer 1" xmlns="http://www.w3.org/2000/svg" viewBox="0 0 1280 1024"><defs><style>.cls-1{fill:#382621;}.cls-2{fill:#ee9dc4;}.cls-3{fill:#fcec5d;}</style></defs><title>bean-cluster</title><g id="Jelly_Bean" data-name="Jelly Bean"><path class="cls-1" d="M469.24,637.24c.1,18.48-10.13,31.12-26,40h0c-4.66,2.35-15.21,6.19-19.61,11.73a66,66,0,0,0-10.57,21.33h0c-5.35,17-20.07,28.49-36.67,28.56-21.53.11-44.9-18.88-35.95-59.19,4.88-15.2,15.1-32.5,29.51-48.3s30.29-27,44.26-32.44C454.25,584,469.12,613.92,469.24,637.24Z"/></g><g id="Jelly_Bean-2" data-name="Jelly Bean"><path class="cls-2" d="M390.93,624.5c12.51,12.58,14,29.31,9.19,48h0c-1.6,5.29-6.23,16.25-5.51,23.52a68.08,68.08,0,0,0,7.14,23h0c7.81,15.88,5.47,35.37-5.83,48.53-14.64,17.09-43.41,22.56-64.43-12.12-6.9-14.26-11.56-34.19-12.35-56.39s2.51-42.44,8.42-57.18C344.82,599.86,375.15,608.63,390.93,624.5Z"/></g><g id="Jelly_Bean-3" data-name="Jelly Bean"><path class="cls-3" d="M519.74,685.67c-4.31,17.88-17.21,27.22-34.65,31.39h0c-5.07,1-16.18,1.72-21.75,5.84A62.42,62.42,0,0,0,448,740.55h0c-9.23,15-26.19,21.9-42.24,17.32-20.83-5.91-38.89-30.8-20.63-67.23,8.34-13.31,22.34-27.17,40-38.39s35.72-17.63,50.51-18.94C518,630,525.18,663.11,519.74,685.67Z"/></g></svg>